<svg height="512pt" viewBox="-18 0 512 512.00049" width="512pt" xmlns="http://www.w3.org/2000/svg"><path d="m141.90625 367.726562 17.910156 3.65625c4.945313 1.011719 9.777344-2.175781 10.789063-7.121093l3.484375-17.023438c-1.609375 0-3.210938.117188-4.820313.117188-10.746093-.054688-21.476562-.804688-32.125-2.25l-2.386719 11.8125c-.492187 2.382812-.011718 4.863281 1.328126 6.890625 1.34375 2.027344 3.4375 3.4375 5.820312 3.917968zm0 0"/><path d="m329.144531 192c30.296875 0 54.855469-24.558594 54.855469-54.855469s-24.558594-54.859375-54.855469-54.859375-54.859375 24.5625-54.859375 54.859375c.03125 30.28125 24.574219 54.824219 54.859375 54.855469zm9.140625-73.140625c15.148438 0 27.429688 12.277344 27.429688 27.425781 0 15.148438-12.28125 27.429688-27.429688 27.429688-15.148437 0-27.429687-12.28125-27.429687-27.429688 0-15.148437 12.28125-27.425781 27.429687-27.425781zm0 0"/><path d="m118.855469 246.859375c55.546875 0 100.574219-45.027344 100.574219-100.574219 0-55.542968-45.027344-100.570312-100.574219-100.570312-55.542969 0-100.570313 45.027344-100.570313 100.570312.066406 55.519532 45.054688 100.507813 100.570313 100.574219zm-27.425781-173.714844c25.246093 0 45.714843 20.464844 45.714843 45.714844 0 25.246094-20.46875 45.710937-45.714843 45.710937-25.25 0-45.714844-20.464843-45.714844-45.710937.03125-25.238281 20.480468-45.6875 45.714844-45.714844zm0 0"/><path d="m320 347.429688c4.335938-.027344 8.070312-3.070313 8.96875-7.316407.054688-.867187.175781-8.410156.175781-10.96875 0-15.148437 12.277344-27.429687 27.425781-27.429687 15.148438 0 27.429688 12.28125 27.429688 27.429687v36.570313c0 5.050781 4.09375 9.144531 9.144531 9.144531 5.046875 0 9.140625-4.09375 9.140625-9.144531v-118.683594c-32.667968-.648438-64.691406 9.128906-91.429687 27.914062v63.339844c0 5.050782 4.09375 9.144532 9.144531 9.144532zm0 0"/><path d="m11.335938 237.632812c-7.496094 20.535157-11.33203175 42.222657-11.335938 64.082032 0 115.949218 106.632812 210.285156 237.714844 210.285156 131.082031 0 237.714844-94.335938 237.714844-210.285156-.011719-21.921875-3.847657-43.671875-11.339844-64.273438-4.085938-11.042968-6.628906-22.59375-7.558594-34.332031-8.875-114.375-104.097656-202.761719-218.816406-203.109375-37.527344-.078125-74.429688 9.578125-107.109375 28.023438 55.457031 5.414062 99.710937 48.625 106.441406 103.9375s-25.867187 107.878906-78.410156 126.433593c-52.539063 18.550781-110.917969-1.886719-140.414063-49.160156-1.230468 9.695313-3.539062 19.21875-6.886718 28.398437zm317.808593-173.632812c40.394531 0 73.140625 32.746094 73.140625 73.144531 0 40.394531-32.746094 73.140625-73.140625 73.140625-40.398437 0-73.144531-32.746094-73.144531-73.140625.046875-40.378906 32.765625-73.097656 73.144531-73.144531zm-291.832031 243.253906c1.988281-4.636718 7.363281-6.789062 12.003906-4.796875 26.492188 10.664063 54.046875 18.476563 82.195313 23.304688.074219-.003907.144531-.003907.21875 0l.144531.054687c17.070312 2.953125 34.429688 3.855469 51.714844 2.6875h.210937c17.335938-.855468 34.121094-6.355468 48.601563-15.925781 14.226562-10.160156 25.957031-19.695313 37.292968-28.921875 39.332032-31.988281 67.675782-55.085938 141.734376-55.085938 5.046874 0 9.140624 4.09375 9.140624 9.144532v128c0 15.148437-12.277343 27.429687-27.425781 27.429687-15.148437 0-27.429687-12.28125-27.429687-27.429687v-36.570313c0-5.050781-4.09375-9.144531-9.144532-9.144531-5.046874 0-9.140624 4.09375-9.140624 9.144531.109374 4.964844-.09375 9.933594-.605469 14.875-2.925781 13.726563-15.746094 23.027344-29.707031 21.554688-13.957032-1.476563-24.550782-13.25-24.546876-27.289063v-49.609375c-3.65625 2.945313-7.433593 5.980469-11.335937 9.144531-10.972656 8.960938-23.515625 19.117188-38.207031 29.613282-14.910156 10.105468-32.070313 16.398437-49.976563 18.332031l-4.570312 22.144531c-3.03125 14.832032-17.511719 24.40625-32.347657 21.382813l-17.929687-3.65625c-7.128906-1.453125-13.386719-5.679688-17.398437-11.746094-4.011719-6.070313-5.449219-13.480469-3.996094-20.609375l2.242187-11.101562c-26.347656-5.101563-52.128906-12.78125-76.976562-22.929688-4.621094-2.003906-6.75-7.367188-4.761719-11.996094zm0 0"/><path d="m347.429688 146.285156c0 5.050782-4.09375 9.144532-9.144532 9.144532-5.046875 0-9.140625-4.09375-9.140625-9.144532 0-5.046875 4.09375-9.140625 9.140625-9.140625 5.050782 0 9.144532 4.09375 9.144532 9.140625zm0 0"/><path d="m118.855469 118.859375c0 15.148437-12.277344 27.425781-27.425781 27.425781-15.148438 0-27.429688-12.277344-27.429688-27.425781s12.28125-27.429687 27.429688-27.429687c15.148437 0 27.425781 12.28125 27.425781 27.429687zm0 0"/></svg>
